<svg xmlns="http://www.w3.org/2000/svg" width="1200" height="630" viewBox="0 0 1200 630">
  <defs>
    <linearGradient id="bg" x1="0" y1="0" x2="1" y2="1">
      <stop offset="0%" stop-color="#0d1220"/>
      <stop offset="100%" stop-color="#1b2335"/>
    </linearGradient>
    <linearGradient id="accent" x1="0" y1="0" x2="1" y2="0">
      <stop offset="0%" stop-color="#60a5fa"/>
      <stop offset="100%" stop-color="#a78bfa"/>
    </linearGradient>
    <filter id="shadow" x="-20%" y="-20%" width="140%" height="140%">
      <feDropShadow dx="0" dy="6" stdDeviation="12" flood-color="#000" flood-opacity="0.3"/>
    </filter>
    <style><![CDATA[
      .wrap { font-family: "Inter", "Noto Sans", "Noto Sans SC", "Segoe UI", Roboto, Helvetica, Arial, sans-serif; }
      .title-main { fill:#e5e7eb; font-weight:800; }
      .title-sub { fill:#cbd5e1; font-weight:700; }
      .title-accent { fill:url(#accent); font-weight:800; }
      .muted { fill:#cbd5e1; font-weight:500; }
      .pill-text { fill:#e5e7eb; font-weight:600; font-size:20px; text-anchor:middle; dominant-baseline:middle; alignment-baseline:middle; }
      .pill-bg { fill: rgba(255,255,255,0.08); stroke: rgba(255,255,255,0.12); }
    ]]></style>
  </defs>
  <rect width="1200" height="630" fill="url(#bg)"/>
  <g filter="url(#shadow)">
    <rect x="64" y="64" width="1072" height="502" rx="28" fill="rgba(13,18,32,0.55)" stroke="rgba(255,255,255,0.12)"/>
  </g>
  <g class="wrap">

<g transform="translate(112,148)">
<text x="0" y="0" class="title-main" font-size="48">¿Quedará obsoleto RAG?</text>
<text x="0" y="60" class="title-sub" font-size="26">Del contexto largo a GraphRAG, entrenamiento sensible al retrieval y KBLaM</text>
<text x="0" y="98" class="title-accent" font-size="32">— Hoja de ruta 2025 —</text>
</g>
<g transform="translate(112,302)">
<text x="0" y="0" class="muted" font-size="20">De la investigación al producto: QA empresarial, plataformas de conocimiento y comprensión multimodal.</text>
</g>

          <g transform="translate(112,358)">
            <rect class="pill-bg" x="0" y="0" rx="999" ry="999" width="140" height="40"/>
            <text class="pill-text" x="70.0" y="20.0" font-size="20">RAG</text>
          </g>
        

          <g transform="translate(270,358)">
            <rect class="pill-bg" x="0" y="0" rx="999" ry="999" width="160" height="40"/>
            <text class="pill-text" x="80.0" y="20.0" font-size="20">GraphRAG</text>
          </g>
        

          <g transform="translate(448,358)">
            <rect class="pill-bg" x="0" y="0" rx="999" ry="999" width="538" height="40"/>
            <text class="pill-text" x="269.0" y="20.0" font-size="20">Entrenamiento sensible al retrieval</text>
          </g>
        

          <g transform="translate(112,416)">
            <rect class="pill-bg" x="0" y="0" rx="999" ry="999" width="140" height="40"/>
            <text class="pill-text" x="70.0" y="20.0" font-size="20">KBLaM</text>
          </g>
        

          <g transform="translate(270,416)">
            <rect class="pill-bg" x="0" y="0" rx="999" ry="999" width="300" height="40"/>
            <text class="pill-text" x="150.0" y="20.0" font-size="20">Ajuste fino de LLM</text>
          </g>
        
</g>
</svg>