<?xml version="1.0" encoding="UTF-8"?>
<svg width="128" height="128" viewBox="0 0 128 128" xmlns="http://www.w3.org/2000/svg" role="img" aria-label="FW monogram logo">
  <defs>
    <linearGradient id="grad" x1="0" y1="0" x2="1" y2="1">
      <stop offset="0" stop-color="#0EA5E9"/>
      <stop offset="0.55" stop-color="#6366F1"/>
      <stop offset="1" stop-color="#22D3EE"/>
    </linearGradient>
    <linearGradient id="gloss" x1="0" y1="0" x2="0" y2="1">
      <stop offset="0" stop-color="#fff" stop-opacity="0.25"/>
      <stop offset="1" stop-color="#fff" stop-opacity="0"/>
    </linearGradient>
    <filter id="shadow" x="-20%" y="-20%" width="140%" height="140%" color-interpolation-filters="sRGB">
      <feDropShadow dx="0" dy="6" stdDeviation="8" flood-color="#020617" flood-opacity="0.25"/>
    </filter>
  </defs>
  <!-- Rounded square background with brand gradient -->
  <rect x="8" y="8" width="112" height="112" rx="28" fill="url(#grad)" filter="url(#shadow)"/>
  <rect x="8" y="8" width="112" height="56" rx="28" fill="url(#gloss)"/>

  <!-- FW Monogram: geometric, balanced, using negative space -->
  <g fill="#ffffff">
    <!-- F: left vertical + two arms -->
    <path d="M36 40c-2.2 0-4 1.8-4 4v40c0 2.2 1.8 4 4 4h8c2.2 0 4-1.8 4-4V72h18c2.2 0 4-1.8 4-4s-1.8-4-4-4H48V52h22c2.2 0 4-1.8 4-4s-1.8-4-4-4H36z"/>
    <!-- W: angular strokes forming a clean W on the right -->
    <path d="M70 44c1.6 0 3 1 3.6 2.5l8 21.2 6-12.6c1.4-3 5.8-3 7.2 0l10 21c1 2.1 0.1 4.6-2 5.6-2.1 1-4.6 0.1-5.6-2l-6.1-12.8-6.2 13.1c-1.3 2.7-5 2.7-6.3 0L70 54.5 66.9 62c-0.9 2.1-3.3 3.1-5.4 2.2-2.1-0.9-3.1-3.3-2.2-5.4l5.5-13C65.6 44.9 67.7 44 70 44z"/>
  </g>
</svg>
